<?xml version="1.0" encoding="utf-8"?>
<!-- Generator: Adobe Illustrator 19.0.0, SVG Export Plug-In . SVG Version: 6.00 Build 0)  -->
<svg version="1.1" id="Layer_1" xmlns="http://www.w3.org/2000/svg" xmlns:xlink="http://www.w3.org/1999/xlink" x="0px" y="0px"
	 viewBox="0 0 512 512" style="enable-background:new 0 0 512 512;" xml:space="preserve">
<style type="text/css">
	.st0{fill:#2980B9;}
	.st1{fill:#BDC3C7;}
	.st2{fill:#3498DB;}
</style>
<g id="XMLID_1_">
	<path id="XMLID_3_" class="st0" d="M42.5,106.7C18.9,106.7,0,125.6,0,149.3v298.5c0,23.6,18.9,42.5,42.5,42.5h426.9
		c23.6,0,42.5-18.9,42.5-42.5V150.1c0-23.6-18.9-42.5-42.5-42.5H42.5V106.7z"/>
	<path id="XMLID_4_" class="st0" d="M63.8,21.7c-23.6,0-42.5,18.9-42.5,42.5v298.5c0,23.6,18.9,42.5,42.5,42.5h234.7h107.1h42.5
		c23.6,0,42.5-18.9,42.5-42.5V171.3v-64.6c0-23.6-18.9-42.5-42.5-42.5h-42.5H298.5h-21.3l-63.8-42.5H63.8z"/>
	<path id="XMLID_5_" class="st1" d="M490.7,298.9V128.8c0-23.6-18.9-42.5-42.5-42.5H213.5H106.3H63.8c-23.6,0-42.5,18.9-42.5,42.5
		v170.9h469.5V298.9z"/>
	<path id="XMLID_6_" class="st2" d="M42.5,106.7C18.9,106.7,0,125.6,0,149.3v128.4v21.3v127.6c0,23.6,18.9,42.5,42.5,42.5h426.9
		c23.6,0,42.5-18.9,42.5-42.5V298.9v-21.3V150.1c0-23.6-18.9-42.5-42.5-42.5H42.5V106.7z"/>
</g>
</svg>
